<?xml version="1.0" encoding="utf-8"?>
<svg width="192px" height="56px" viewBox="0 0 192 56" version="1.1" xmlns:xlink="http://www.w3.org/1999/xlink" xmlns="http://www.w3.org/2000/svg">
  <defs>
    <path d="M0 0L192 0L192 56L0 56L0 0Z" id="path_1" />
    <clipPath id="mask_1">
      <use xlink:href="#path_1" />
    </clipPath>
  </defs>
  <g id="logo">
    <path d="M0 0L192 0L192 56L0 56L0 0Z" id="Background" fill="#FFFFFF" fill-opacity="0" fill-rule="evenodd" stroke="none" />
    <path d="M10.36 39.28C7.88 39.28 5.96 36.96 5.96 33.64C5.96 29.36 7.44 27.24 10.32 27.24C13.36 27.24 14.8 29.28 14.8 33.32C14.8 36.84 12.96 39.28 10.36 39.28L10.36 39.28ZM6.04 43L6.08 40.6C7.32 42.6 9.16 43.52 11.56 43.52C16.52 43.52 20.08 39.6 20.08 32.96C20.08 27 17.08 22.8 12 22.8C9.56 22.8 7.64 23.8 6.16 25.88L6.16 16.12L1.04 16.12L1.04 43L6.04 43L6.04 43ZM39.7366 43L39.7366 23.32L34.5766 23.32L34.5766 34.68C34.5766 37.28 33.1766 39.16 30.5366 39.16C28.3366 39.16 27.2166 37.96 27.2166 35.48L27.2166 23.32L22.0166 23.32L22.0166 36.28C22.0166 40.6 24.7766 43.52 28.6966 43.52C31.4166 43.52 33.4566 42.48 34.8166 40.24L34.8166 43L39.7366 43L39.7366 43ZM54.5366 43.6C54.5366 46.2 52.8166 47.84 50.9366 47.84C48.2166 47.84 46.8566 46.4 46.8566 44.08L42.0166 44.08C42.0166 49.16 44.9366 52.32 50.6966 52.32C55.7366 52.32 59.7366 49.08 59.7366 43.52L59.7366 23.32L54.5366 23.32L54.5366 35.32C54.5366 37.44 52.8966 39 50.5366 39C48.3366 39 47.2166 37.76 47.2166 35.32L47.2166 23.32L42.0166 23.32L42.0166 36.08C42.0166 40.4 45.0966 43.2 49.2166 43.2C51.6566 43.2 53.8166 42.16 54.5366 40.4L54.5366 43.6L54.5366 43.6ZM90.2547 43L90.2547 29.36C90.2547 25.68 87.4947 22.8 83.5347 22.8C81.0547 22.8 79.2947 23.76 78.2147 25.92C76.6947 23.64 75.4147 22.8 72.7347 22.8C70.1347 22.8 68.2947 23.6 66.9747 26.2L66.9747 23.32L62.0947 23.32L62.0947 43L67.2947 43L67.2947 31.04C67.2947 28.48 68.3747 27.2 70.4547 27.2C72.7347 27.2 73.5747 28 73.5747 31.16L73.5747 43L78.7747 43L78.7747 31.24C78.7747 28.84 80.1747 27.04 82.0947 27.04C83.9347 27.04 85.1747 28.72 85.1747 31.08L85.1747 43L90.2547 43L90.2547 43ZM97.1709 31.24C97.3709 28.52 99.0909 26.92 101.171 26.92C103.211 26.92 105.131 28.32 105.211 31.24L97.1709 31.24L97.1709 31.24ZM110.571 34.52C110.571 26.72 107.371 22.8 101.331 22.8C95.2909 22.8 91.8109 26.72 91.8109 32.8C91.8109 39.92 95.0909 43.52 101.651 43.52C105.851 43.52 109.091 41.24 110.291 37.2L104.931 37.2C104.571 38.56 103.091 39.4 101.411 39.4C98.8509 39.4 97.1709 37.48 97.0109 34.52L110.571 34.52L110.571 34.52Z" id="Shape" fill="#302E29" fill-rule="evenodd" stroke="none" />
    <path d="M112.368 44.12C112.368 46.36 111.648 47.72 109.568 47.72C107.528 47.72 106.808 46.32 106.808 44.08L101.928 44.08C101.928 49.16 104.448 52.32 109.848 52.32C114.248 52.32 117.608 49.08 117.608 44.32L117.608 23.32L112.368 23.32L112.368 44.12L112.368 44.12ZM117.608 20.96L117.608 16.12L112.368 16.12L112.368 20.96L117.608 20.96L117.608 20.96ZM129.861 39.16C126.701 39.16 125.101 37.16 125.101 33.16C125.101 29.16 126.701 27.2 129.861 27.2C133.021 27.2 134.621 29.16 134.621 33.16C134.621 37.16 133.021 39.16 129.861 39.16L129.861 39.16ZM129.861 43.52C135.981 43.52 139.861 39.4 139.861 33.16C139.861 26.88 136.021 22.8 129.861 22.8C123.621 22.8 119.741 26.92 119.741 33.16C119.741 39.28 123.501 43.52 129.861 43.52L129.861 43.52ZM146.943 43L146.943 16.12L141.743 16.12L141.743 43L146.943 43L146.943 43ZM154.326 43L154.326 16.12L149.126 16.12L149.126 43L154.326 43L154.326 43ZM166.189 39.16C163.029 39.16 161.429 37.16 161.429 33.16C161.429 29.16 163.029 27.2 166.189 27.2C169.349 27.2 170.949 29.16 170.949 33.16C170.949 37.16 169.349 39.16 166.189 39.16L166.189 39.16ZM166.189 43.52C172.309 43.52 176.189 39.4 176.189 33.16C176.189 26.88 172.349 22.8 166.189 22.8C159.949 22.8 156.069 26.92 156.069 33.16C156.069 39.28 159.829 43.52 166.189 43.52L166.189 43.52ZM183.669 43L183.669 27L187.029 27L187.029 23.32L183.669 23.32C183.669 21.04 184.269 20.32 186.909 20.32L186.909 16.12C181.309 16.12 178.549 18.52 178.549 23.32L175.629 23.32L175.629 27L178.549 27L178.549 43L183.669 43L183.669 43Z" id="Shape" fill="#EFA92F" fill-rule="evenodd" stroke="none" />
  </g>
</svg>